<svg width="16" height="16" viewBox="0 0 16 16" fill="none" xmlns="http://www.w3.org/2000/svg">
<g clip-path="url(#clip0_922_2590)">
<path d="M15.4855 9.30873C15.7375 7.94885 15.8883 5.73304 14.3195 4.1642C13.4464 3.29113 12.6232 2.46838 12.6232 2.46838C12.422 2.26673 12.1954 2.17445 12.0109 2.35901C11.9318 2.4381 11.7955 2.44641 11.7169 2.36779L11.2643 1.91466C11.1852 1.83604 11.194 1.69982 11.2726 1.62073L11.3815 1.51185C11.4606 1.43323 11.4606 1.30532 11.3815 1.2267L10.2731 0.118289C10.1159 -0.0394297 9.85999 -0.0394297 9.70227 0.118289L8.2843 1.53626C8.12659 1.69448 8.12659 1.94982 8.2843 2.10754L9.39271 3.21545C9.47134 3.29454 9.59877 3.29454 9.67787 3.21545L9.74477 3.14854C9.8234 3.06991 9.9518 3.06991 10.0304 3.14854L10.2546 3.37266C10.5568 3.67491 10.4308 3.93907 10.2731 4.09679L9.1154 5.25501L11.1296 7.26916L11.717 6.68176C12.0319 6.36632 12.5436 6.36632 12.8586 6.68176C12.8586 6.68176 13.0051 6.82776 13.0177 6.84141C14.0754 7.89854 14.403 8.67932 14.7047 9.43466C14.8976 9.91613 15.4601 9.88782 15.4855 9.30873Z" fill="#00AB55"/>
<path d="M2.14441 15.8591C2.33241 16.0471 2.63709 16.0471 2.82506 15.8591L7.43347 11.2507C7.62097 11.0632 7.62097 10.7585 7.43347 10.5705L5.78503 8.92206C5.59703 8.73406 5.29284 8.73456 5.10484 8.92206L0.496469 13.5305C0.308469 13.7185 0.308469 14.0232 0.496469 14.2107L2.14441 15.8591Z" fill="#00AB55"/>
<path d="M7.86279 9.99219L10.3291 7.52588L8.88966 6.08594L6.42285 8.55272L7.86279 9.99219Z" fill="#00AB55"/>
</g>
<defs>
<clipPath id="clip0_922_2590">
<rect width="16" height="16" fill="white"/>
</clipPath>
</defs>
</svg>
