<svg
                    width="24"
                    height="24"
                    viewBox="0 0 24 24"
                    fill="none"
                    xmlns="http://www.w3.org/2000/svg"
                >
                        <path
                            d="M11.9999 3.19995C14.7522 3.19995 16.9999 5.44767 16.9999 8.19995V10.9998H17.9999C19.1044 10.9998 19.9998 11.8953 19.9999 12.9998V19.9998C19.9999 21.1043 19.1045 21.9998 17.9999 21.9998H5.99994C4.89537 21.9998 3.99994 21.1043 3.99994 19.9998V12.9998C4.00007 11.8953 4.89545 10.9998 5.99994 10.9998H6.99994V8.19995C6.99994 5.44772 9.24772 3.20003 11.9999 3.19995ZM11.9999 5.19995C10.3523 5.20003 8.99994 6.55228 8.99994 8.19995V10.9998H14.9999V8.19995C14.9999 6.55224 13.6477 5.19995 11.9999 5.19995Z"
                            fill="currentColor"
                        />
                </svg>