<svg
  viewBox="0 0 24 24"
  fill="none"
  stroke="currentColor"
  stroke-width="1.8"
  stroke-linecap="round"
  stroke-linejoin="round"
>
  <path d="M4 6c0 1.657 3.582 3 8 3s8 -1.343 8 -3s-3.582 -3 -8 -3s-8 1.343 -8 3" />
  <path d="M4 6v6c0 1.657 3.582 3 8 3c1 0 1.967 -.068 2.87 -.196" />
  <path d="M20 12v-6" />
  <path d="M4 12v6c0 1.657 3.582 3 8 3c.21 0 .42 -.003 .626 -.01" />
  <path d="M18 18m-2.5 0a2.5 2.5 0 1 0 5 0a2.5 2.5 0 1 0 -5 0" />
  <path d="M18 14.5v1.5" />
  <path d="M18 20v1.5" />
  <path d="M21.032 16.25l-1.299 .75" />
  <path d="M16.27 19l-1.3 .75" />
  <path d="M14.97 16.25l1.3 .75" />
  <path d="M19.733 19l1.3 .75" />
</svg>
