<svg
  viewBox="0 0 24 24"
  fill="none"
  stroke="currentColor"
  stroke-width="1.6"
  stroke-linecap="round"
  stroke-linejoin="round"
>
  <path d="M22 12.54c-1.804 -.345 -2.701 -1.08 -3.523 -2.94c-.487 .696 -1.102 1.568 -.92 2.4c.213 .976 .89 1 1.36 1.54" />
  <path d="M5 10h3v3h-3z" />
  <path d="M8 10h3v3h-3z" />
  <path d="M11 10h3v3h-3z" />
  <path d="M8 7h3v3h-3z" />
  <path d="M11 7h3v3h-3z" />
  <path d="M11 4h3v3h-3z" />
  <path d="M4.571 18c1.5 0 2.047 -.074 2.958 -.78c.41 .421 1.502 .781 2.124 .781c.621 0 1.836 -.36 2.246 -.781c.41 .421 1.502 .781 2.124 .781c.621 0 1.836 -.36 2.246 -.781c.41 .421 1.502 .781 2.123 .781c.622 0 1.835 -.36 2.245 -.781c.61 .622 1.156 .781 2.363 .781" />
</svg>
